<svg width="800" height="110" viewBox="0 0 800 110" xmlns="http://www.w3.org/2000/svg">
  <defs>
    <!-- Royal gradient -->
    <linearGradient id="grad" x1="0%" y1="0%" x2="100%" y2="0%">
      <stop offset="0%" stop-color="#eb6f92" />
      <stop offset="100%" stop-color="#ebbcba" />
    </linearGradient>
  </defs>

  <!-- Background transparent for GitHub -->
  <rect width="800" height="110" fill="transparent" />

  <!-- Left swirl -->
  <path
    d="
      M 160 55
      C 150 45, 130 35, 115 35
      C 95 36, 82 48, 75 55
      C 68 62, 55 68, 40 67
      "
    fill="none"
    stroke="url(#grad)"
    stroke-width="2"
    stroke-linecap="round"
    stroke-linejoin="round" />

  <!-- Small decorative dots (left) -->
  <circle cx="65" cy="60" r="3" fill="#b4637a" />
  <circle cx="90" cy="48" r="2" fill="#b4637a" />
  <circle cx="108" cy="40" r="1.8" fill="#b4637a" />

  <!-- Right swirl (mirror) -->
  <g transform="scale(-1,1) translate(-800,0)">
    <path
      d="
        M 160 55
        C 150 45, 130 35, 115 35
        C 95 36, 82 48, 75 55
        C 68 62, 55 68, 40 67
        "
      fill="none"
      stroke="url(#grad)"
      stroke-width="2"
      stroke-linecap="round"
      stroke-linejoin="round" />

    <circle cx="65" cy="60" r="3" fill="#b4637a" />
    <circle cx="90" cy="48" r="2" fill="#b4637a" />
    <circle cx="108" cy="40" r="1.8" fill="#b4637a" />
  </g>

  <!-- Central text -->
  <g transform="translate(161, 35)" stroke-linecap="round" fill-rule="evenodd" stroke="none" fill="url(#grad)">
    <path d="M 23.1 38.82 L 5.34 38.82 L 5.34 33.66 L 0 33.66 L 0 5.28 L 5.34 5.28 L 5.34 0 L 23.1 0 L 23.1 5.28 L 28.5 5.28 L 28.5 17.94 L 21.36 17.94 L 21.36 7.5 L 7.08 7.5 L 7.08 31.38 L 21.36 31.38 L 21.36 28.38 L 16.02 28.38 L 16.02 23.1 L 10.62 23.1 L 10.62 15.72 L 17.82 15.72 L 17.82 20.88 L 28.5 20.88 L 28.5 33.66 L 23.1 33.66 L 23.1 38.82 Z M 442.26 38.82 L 424.44 38.82 L 424.44 10.5 L 431.52 10.5 L 431.52 31.38 L 440.46 31.38 L 440.46 10.5 L 447.54 10.5 L 447.54 31.38 L 456.6 31.38 L 456.6 10.5 L 463.62 10.5 L 463.62 33.66 L 458.34 33.66 L 458.34 38.82 L 445.8 38.82 L 445.8 33.66 L 442.26 33.66 L 442.26 38.82 Z M 92.94 38.82 L 75.18 38.82 L 75.18 33.66 L 69.84 33.66 L 69.84 15.72 L 75.18 15.72 L 75.18 10.5 L 92.94 10.5 L 92.94 15.72 L 98.34 15.72 L 98.34 23.1 L 91.2 23.1 L 91.2 17.94 L 76.92 17.94 L 76.92 20.88 L 87.66 20.88 L 87.66 28.38 L 76.92 28.38 L 76.92 31.38 L 91.2 31.38 L 91.2 26.1 L 98.34 26.1 L 98.34 33.6 L 92.94 33.6 L 92.94 38.82 Z M 128.76 38.82 L 111 38.82 L 111 33.66 L 105.66 33.66 L 105.66 15.72 L 111 15.72 L 111 10.5 L 128.76 10.5 L 128.76 15.72 L 134.16 15.72 L 134.16 23.1 L 127.02 23.1 L 127.02 17.94 L 112.74 17.94 L 112.74 20.88 L 123.48 20.88 L 123.48 28.38 L 112.74 28.38 L 112.74 31.38 L 127.02 31.38 L 127.02 26.1 L 134.16 26.1 L 134.16 33.6 L 128.76 33.6 L 128.76 38.82 Z M 348.3 38.82 L 330.54 38.82 L 330.54 33.66 L 325.2 33.66 L 325.2 15.72 L 330.54 15.72 L 330.54 10.5 L 348.3 10.5 L 348.3 15.72 L 353.7 15.72 L 353.7 23.1 L 346.56 23.1 L 346.56 17.94 L 332.28 17.94 L 332.28 20.88 L 343.02 20.88 L 343.02 28.38 L 332.28 28.38 L 332.28 31.38 L 346.56 31.38 L 346.56 26.1 L 353.7 26.1 L 353.7 33.6 L 348.3 33.6 L 348.3 38.82 Z M 169.98 38.82 L 152.1 38.82 L 152.1 33.66 L 146.82 33.66 L 146.82 17.94 L 141.48 17.94 L 141.48 10.5 L 146.82 10.5 L 146.82 0 L 153.9 0 L 153.9 10.5 L 169.98 10.5 L 169.98 17.94 L 153.9 17.94 L 153.9 31.38 L 168.24 31.38 L 168.24 26.16 L 175.38 26.16 L 175.38 33.66 L 169.98 33.66 L 169.98 38.82 Z M 253.68 49.32 L 235.86 49.32 L 235.86 44.1 L 230.52 44.1 L 230.52 36.66 L 237.6 36.66 L 237.6 41.88 L 251.94 41.88 L 251.94 33.66 L 235.86 33.66 L 235.86 28.38 L 230.52 28.38 L 230.52 15.72 L 235.86 15.72 L 235.86 10.5 L 253.68 10.5 L 253.68 15.72 L 259.02 15.72 L 259.02 44.1 L 253.68 44.1 L 253.68 49.32 Z M 302.46 38.82 L 295.38 38.82 L 295.38 0 L 318.48 0 L 318.48 5.28 L 323.88 5.28 L 323.88 12.72 L 316.74 12.72 L 316.74 7.5 L 302.46 7.5 L 302.46 15.72 L 313.2 15.72 L 313.2 23.1 L 302.46 23.1 L 302.46 38.82 Z M 202.98 38.82 L 195.9 38.82 L 195.9 10.5 L 219 10.5 L 219 15.72 L 224.4 15.72 L 224.4 38.82 L 217.26 38.82 L 217.26 17.94 L 202.98 17.94 L 202.98 38.82 Z M 42.9 38.82 L 35.82 38.82 L 35.82 15.72 L 41.16 15.72 L 41.16 10.5 L 58.92 10.5 L 58.92 15.72 L 64.32 15.72 L 64.32 23.1 L 57.18 23.1 L 57.18 17.94 L 42.9 17.94 L 42.9 38.82 Z M 411.72 38.82 L 393.96 38.82 L 393.96 33.66 L 388.62 33.66 L 388.62 15.72 L 393.96 15.72 L 393.96 10.5 L 411.72 10.5 L 411.72 15.72 L 417.12 15.72 L 417.12 33.66 L 411.72 33.66 L 411.72 38.82 Z M 368.1 38.82 L 361.02 38.82 L 361.02 0 L 368.1 0 L 368.1 38.82 Z M 382.5 38.82 L 375.42 38.82 L 375.42 0 L 382.5 0 L 382.5 38.82 Z M 478.02 28.38 L 470.94 28.38 L 470.94 0 L 478.02 0 L 478.02 28.38 Z M 189.78 38.82 L 182.7 38.82 L 182.7 10.5 L 189.78 10.5 L 189.78 38.82 Z M 395.7 17.94 L 395.7 31.38 L 409.98 31.38 L 409.98 17.94 L 395.7 17.94 Z M 273.42 43.38 L 268.98 43.38 L 268.98 40.5 L 269.88 39.66 L 269.88 38.16 L 266.34 38.16 L 266.34 30.66 L 273.42 30.66 L 273.42 35.94 L 276.06 35.94 L 276.06 40.68 L 273.42 40.68 L 273.42 43.38 Z M 237.6 17.94 L 237.6 26.16 L 251.94 26.16 L 251.94 17.94 L 237.6 17.94 Z M 189.78 7.5 L 182.7 7.5 L 182.7 0 L 189.78 0 L 189.78 7.5 Z M 478.02 38.82 L 470.94 38.82 L 470.94 31.38 L 478.02 31.38 L 478.02 38.82 Z"/>
  </g>
</svg>